<?xml version="1.0" encoding="utf-8"?>
<!-- Generator: Adobe Illustrator 24.3.0, SVG Export Plug-In . SVG Version: 6.00 Build 0)  -->
<svg version="1.1" id="Calque_1" xmlns="http://www.w3.org/2000/svg" xmlns:xlink="http://www.w3.org/1999/xlink" x="0px" y="0px"
	 viewBox="0 0 1126 1126" style="enable-background:new 0 0 1126 1126;" xml:space="preserve">
<style type="text/css">
	.st0{fill:#FFBD00;}
	.st1{fill:#1D1D1B;}
	.st2{fill:#45CFFF;}
</style>
<g>
	<circle class="st0" cx="563" cy="563" r="533.6"/>
	<path class="st1" d="M563,1116.6c-74.7,0-147.2-14.6-215.5-43.5c-65.9-27.9-125.1-67.8-176-118.6s-90.7-110-118.6-176
		C24.1,710.2,9.4,637.7,9.4,563s14.6-147.2,43.5-215.5c27.9-65.9,67.8-125.1,118.6-176c50.8-50.8,110-90.7,176-118.6
		C415.8,24.1,488.3,9.4,563,9.4s147.2,14.6,215.5,43.5c65.9,27.9,125.1,67.8,176,118.6c50.8,50.8,90.7,110,118.6,176
		c28.9,68.3,43.5,140.8,43.5,215.5s-14.6,147.2-43.5,215.5c-27.9,65.9-67.8,125.1-118.6,176s-110,90.7-176,118.6
		C710.2,1102,637.7,1116.6,563,1116.6z M563,49.4c-69.3,0-136.6,13.6-199.9,40.4c-61.2,25.9-116.1,62.9-163.3,110.1
		S115.6,301.9,89.8,363.1C63,426.4,49.4,493.7,49.4,563S63,699.6,89.8,762.9c25.9,61.2,62.9,116.1,110.1,163.3
		s102.1,84.2,163.3,110.1c63.3,26.8,130.6,40.4,199.9,40.4s136.6-13.6,199.9-40.4c61.2-25.9,116.1-62.9,163.3-110.1
		s84.2-102.1,110.1-163.3c26.8-63.3,40.4-130.6,40.4-199.9s-13.6-136.6-40.4-199.9c-25.9-61.2-62.9-116.1-110.1-163.3
		C879,152.7,824.1,115.6,762.9,89.8C699.6,63,632.4,49.4,563,49.4z"/>
</g>
<path class="st1" d="M170.9,894.3l150-727.2L565.9,693l254.4-525.9l134.8,727.2H845l-68.4-408.2L564,926.5L358.9,486.1L283,894.3
	H170.9z"/>
<polygon class="st2" points="320.9,167.1 820.3,167.1 565.9,693 "/>
</svg>
