<?xml version="1.0" encoding="utf-8"?>
<!-- Generator: Adobe Illustrator 24.3.0, SVG Export Plug-In . SVG Version: 6.00 Build 0)  -->
<svg version="1.1" id="Calque_1" xmlns="http://www.w3.org/2000/svg" xmlns:xlink="http://www.w3.org/1999/xlink" x="0px" y="0px"
	 viewBox="0 0 184.1 58" style="enable-background:new 0 0 184.1 58;" xml:space="preserve">
<style type="text/css">
	.st0{fill:#FFBD00;}
	.st1{fill:#21293B;}
	.st2{fill:#45CFFF;}
</style>
<ellipse class="st0" cx="161.1" cy="23.9" rx="16.9" ry="16.8"/>
<ellipse class="st1" cx="161.1" cy="23.9" rx="5.4" ry="4.8"/>
<circle class="st1" cx="44.7" cy="50.7" r="1.1"/>
<g>
	<path class="st1" d="M3.3,41.8l7.9-38.3l12.9,27.7L37.5,3.5l7.1,38.3h-5.8l-3.6-21.5L24,43.5L13.2,20.3l-4,21.5H3.3z"/>
	<path class="st1" d="M73.4,11.2H58.3v8.6H73v5.1H58.3v11.9h15.1v5.1H52.6V6.2h20.8V11.2z"/>
	<path class="st1" d="M87.4,36.8h18.1v5.1H78l18.5-30.6H81.1V6.2h24.8L87.4,36.8z"/>
	<path class="st1" d="M118.6,36.8h18.1v5.1h-27.4l18.5-30.6h-15.5V6.2h24.8L118.6,36.8z"/>
	<path class="st1" d="M141.4,23.8c0-5,1.9-9.3,5.8-12.9c3.9-3.6,8.5-5.4,14-5.4c5.4,0,10,1.8,13.8,5.4c3.9,3.6,5.8,8,5.8,13.1
		c0,5.1-1.9,9.5-5.8,13c-3.9,3.6-8.6,5.4-14.1,5.4c-4.9,0-9.2-1.6-13.1-4.8C143.6,34.2,141.4,29.6,141.4,23.8z M147.2,23.9
		c0,3.9,1.4,7.2,4.2,9.7c2.8,2.5,6,3.8,9.6,3.8c4,0,7.3-1.3,10-3.9c2.7-2.6,4.1-5.8,4.1-9.6c0-3.8-1.3-7-4-9.6
		c-2.7-2.6-6-3.9-9.9-3.9c-3.9,0-7.2,1.3-9.9,3.9C148.5,17,147.2,20.2,147.2,23.9z"/>
</g>
<g>
	<path d="M9.6,51.5L9.6,51.5c0,0.8-0.2,1.4-0.7,1.9c-0.5,0.4-1.2,0.6-2,0.6C6,54,5.4,53.6,4.8,53s-0.8-1.5-0.8-2.5v-1.2
		c0-1,0.3-1.9,0.8-2.5s1.2-1,2.1-1c0.8,0,1.5,0.2,2,0.6c0.5,0.4,0.7,1,0.7,1.8l0,0H9.3c0-0.7-0.2-1.2-0.7-1.6s-1-0.6-1.8-0.6
		c-0.8,0-1.4,0.3-1.8,0.9s-0.7,1.3-0.7,2.3v1.2c0,0.9,0.2,1.7,0.7,2.3c0.5,0.6,1.1,0.9,1.8,0.9c0.8,0,1.3-0.2,1.8-0.6
		s0.7-0.9,0.7-1.7H9.6z"/>
	<path d="M15.6,51.5h-3.8l-0.9,2.3h-0.3l2.9-7.8h0.4l2.9,7.8h-0.3L15.6,51.5z M11.9,51.2h3.6l-1.6-4.4l-0.2-0.5h0l-0.1,0.5
		L11.9,51.2z"/>
	<path d="M18.6,53.9h-0.3V46h0.3V53.9z"/>
	<path d="M25.5,52c0-0.4-0.2-0.8-0.6-1.1c-0.4-0.3-1-0.6-1.9-0.8c-0.9-0.3-1.5-0.6-1.9-0.9s-0.6-0.7-0.6-1.3c0-0.6,0.2-1.1,0.7-1.4
		c0.5-0.4,1.1-0.5,1.9-0.5c0.8,0,1.4,0.2,1.9,0.6c0.5,0.4,0.7,1,0.7,1.7l0,0h-0.2c0-0.6-0.2-1.1-0.6-1.5s-1-0.6-1.7-0.6
		c-0.7,0-1.3,0.2-1.7,0.5c-0.4,0.3-0.6,0.7-0.6,1.2s0.2,0.8,0.5,1.1s1,0.6,1.9,0.8c0.9,0.3,1.5,0.6,2,0.9s0.6,0.7,0.6,1.3
		c0,0.6-0.3,1.1-0.8,1.4c-0.5,0.4-1.1,0.5-1.9,0.5c-0.8,0-1.5-0.2-2-0.6s-0.8-0.9-0.8-1.7l0,0h0.2c0,0.7,0.3,1.2,0.8,1.5
		s1.1,0.5,1.8,0.5c0.7,0,1.2-0.2,1.7-0.5C25.3,52.9,25.5,52.5,25.5,52z"/>
	<path d="M32.1,52c0-0.4-0.2-0.8-0.6-1.1c-0.4-0.3-1-0.6-1.9-0.8c-0.9-0.3-1.5-0.6-1.9-0.9s-0.6-0.7-0.6-1.3c0-0.6,0.2-1.1,0.7-1.4
		c0.5-0.4,1.1-0.5,1.9-0.5c0.8,0,1.4,0.2,1.9,0.6c0.5,0.4,0.7,1,0.7,1.7l0,0H32c0-0.6-0.2-1.1-0.6-1.5s-1-0.6-1.7-0.6
		c-0.7,0-1.3,0.2-1.7,0.5c-0.4,0.3-0.6,0.7-0.6,1.2s0.2,0.8,0.5,1.1s1,0.6,1.9,0.8c0.9,0.3,1.5,0.6,2,0.9s0.6,0.7,0.6,1.3
		c0,0.6-0.3,1.1-0.8,1.4c-0.5,0.4-1.1,0.5-1.9,0.5c-0.8,0-1.5-0.2-2-0.6s-0.8-0.9-0.8-1.7l0,0h0.2c0,0.7,0.3,1.2,0.8,1.5
		s1.1,0.5,1.8,0.5c0.7,0,1.2-0.2,1.7-0.5C31.9,52.9,32.1,52.5,32.1,52z"/>
	<path d="M38.1,49.9h-3.8v3.6h4.3v0.3h-4.6V46h4.6v0.3h-4.3v3.3h3.8V49.9z"/>
	<path d="M55,51.5h-3.8l-0.9,2.3H50l2.9-7.8h0.4l2.9,7.8h-0.3L55,51.5z M51.3,51.2h3.6l-1.6-4.4l-0.2-0.5h0l-0.1,0.5L51.3,51.2z"/>
	<path d="M62.1,52c0-0.4-0.2-0.8-0.6-1.1c-0.4-0.3-1-0.6-1.9-0.8c-0.9-0.3-1.5-0.6-1.9-0.9s-0.6-0.7-0.6-1.3c0-0.6,0.2-1.1,0.7-1.4
		c0.5-0.4,1.1-0.5,1.9-0.5c0.8,0,1.4,0.2,1.9,0.6c0.5,0.4,0.7,1,0.7,1.7l0,0H62c0-0.6-0.2-1.1-0.6-1.5s-1-0.6-1.7-0.6
		c-0.7,0-1.3,0.2-1.7,0.5c-0.4,0.3-0.6,0.7-0.6,1.2s0.2,0.8,0.5,1.1s1,0.6,1.9,0.8c0.9,0.3,1.5,0.6,2,0.9s0.6,0.7,0.6,1.3
		c0,0.6-0.3,1.1-0.8,1.4c-0.5,0.4-1.1,0.5-1.9,0.5c-0.8,0-1.5-0.2-2-0.6s-0.8-0.9-0.8-1.7l0,0h0.2c0,0.7,0.3,1.2,0.8,1.5
		s1.1,0.5,1.8,0.5c0.7,0,1.2-0.2,1.7-0.5C61.9,52.9,62.1,52.5,62.1,52z"/>
	<path d="M68.6,52c0-0.4-0.2-0.8-0.6-1.1c-0.4-0.3-1-0.6-1.9-0.8c-0.9-0.3-1.5-0.6-1.9-0.9s-0.6-0.7-0.6-1.3c0-0.6,0.2-1.1,0.7-1.4
		c0.5-0.4,1.1-0.5,1.9-0.5c0.8,0,1.4,0.2,1.9,0.6c0.5,0.4,0.7,1,0.7,1.7l0,0h-0.2c0-0.6-0.2-1.1-0.6-1.5s-1-0.6-1.7-0.6
		c-0.7,0-1.3,0.2-1.7,0.5c-0.4,0.3-0.6,0.7-0.6,1.2s0.2,0.8,0.5,1.1s1,0.6,1.9,0.8c0.9,0.3,1.5,0.6,2,0.9s0.6,0.7,0.6,1.3
		c0,0.6-0.3,1.1-0.8,1.4C67.7,53.8,67,54,66.3,54c-0.8,0-1.5-0.2-2-0.6s-0.8-0.9-0.8-1.7l0,0h0.2c0,0.7,0.3,1.2,0.8,1.5
		s1.1,0.5,1.8,0.5c0.7,0,1.2-0.2,1.7-0.5C68.4,52.9,68.6,52.5,68.6,52z"/>
	<path d="M76.1,50.5c0,1.1-0.3,1.9-0.8,2.5c-0.5,0.6-1.2,0.9-2.2,0.9c-0.9,0-1.6-0.3-2.2-0.9c-0.5-0.6-0.8-1.5-0.8-2.5v-1.2
		c0-1.1,0.3-1.9,0.8-2.5c0.5-0.6,1.2-0.9,2.2-0.9c0.9,0,1.6,0.3,2.2,0.9s0.8,1.5,0.8,2.5V50.5z M75.8,49.3c0-1-0.2-1.7-0.7-2.3
		c-0.5-0.6-1.1-0.8-2-0.8c-0.8,0-1.5,0.3-2,0.8c-0.5,0.6-0.7,1.3-0.7,2.3v1.2c0,1,0.2,1.7,0.7,2.3c0.5,0.6,1.1,0.8,2,0.8
		c0.9,0,1.5-0.3,2-0.8c0.5-0.6,0.7-1.3,0.7-2.3V49.3z"/>
	<path d="M83.1,51.5L83.1,51.5c0,0.8-0.2,1.4-0.7,1.9c-0.5,0.4-1.2,0.6-2,0.6c-0.9,0-1.5-0.3-2.1-0.9s-0.8-1.5-0.8-2.5v-1.2
		c0-1,0.3-1.9,0.8-2.5s1.2-1,2.1-1c0.8,0,1.5,0.2,2,0.6c0.5,0.4,0.7,1,0.7,1.8l0,0h-0.2c0-0.7-0.2-1.2-0.7-1.6s-1-0.6-1.8-0.6
		c-0.8,0-1.4,0.3-1.8,0.9s-0.7,1.3-0.7,2.3v1.2c0,0.9,0.2,1.7,0.7,2.3c0.5,0.6,1.1,0.9,1.8,0.9c0.8,0,1.3-0.2,1.8-0.6
		s0.7-0.9,0.7-1.7H83.1z"/>
	<path d="M85.6,53.9h-0.3V46h0.3V53.9z"/>
	<path d="M92.1,51.5h-3.8l-0.9,2.3h-0.3L90,46h0.4l2.9,7.8H93L92.1,51.5z M88.4,51.2H92l-1.6-4.4l-0.2-0.5h0l-0.1,0.5L88.4,51.2z"/>
	<path d="M99.1,46.3h-2.7v7.5h-0.3v-7.5h-2.9V46h6V46.3z"/>
	<path d="M101,53.9h-0.3V46h0.3V53.9z"/>
	<path d="M108.9,50.5c0,1.1-0.3,1.9-0.8,2.5c-0.5,0.6-1.2,0.9-2.2,0.9c-0.9,0-1.6-0.3-2.2-0.9c-0.5-0.6-0.8-1.5-0.8-2.5v-1.2
		c0-1.1,0.3-1.9,0.8-2.5c0.5-0.6,1.2-0.9,2.2-0.9c0.9,0,1.6,0.3,2.2,0.9s0.8,1.5,0.8,2.5V50.5z M108.6,49.3c0-1-0.2-1.7-0.7-2.3
		c-0.5-0.6-1.1-0.8-2-0.8c-0.8,0-1.5,0.3-2,0.8c-0.5,0.6-0.7,1.3-0.7,2.3v1.2c0,1,0.2,1.7,0.7,2.3c0.5,0.6,1.1,0.8,2,0.8
		c0.9,0,1.5-0.3,2-0.8c0.5-0.6,0.7-1.3,0.7-2.3V49.3z"/>
	<path d="M116.3,53.9H116l-5-7.3l0,0v7.3h-0.3V46h0.3l5,7.3l0,0V46h0.3V53.9z"/>
	<path d="M123.1,52c0-0.4-0.2-0.8-0.6-1.1c-0.4-0.3-1-0.6-1.9-0.8c-0.9-0.3-1.5-0.6-1.9-0.9s-0.6-0.7-0.6-1.3c0-0.6,0.2-1.1,0.7-1.4
		c0.5-0.4,1.1-0.5,1.9-0.5c0.8,0,1.4,0.2,1.9,0.6c0.5,0.4,0.7,1,0.7,1.7l0,0H123c0-0.6-0.2-1.1-0.6-1.5s-1-0.6-1.7-0.6
		c-0.7,0-1.3,0.2-1.7,0.5c-0.4,0.3-0.6,0.7-0.6,1.2s0.2,0.8,0.5,1.1s1,0.6,1.9,0.8c0.9,0.3,1.5,0.6,2,0.9s0.6,0.7,0.6,1.3
		c0,0.6-0.3,1.1-0.8,1.4c-0.5,0.4-1.1,0.5-1.9,0.5c-0.8,0-1.5-0.2-2-0.6s-0.8-0.9-0.8-1.7l0,0h0.2c0,0.7,0.3,1.2,0.8,1.5
		s1.1,0.5,1.8,0.5c0.7,0,1.2-0.2,1.7-0.5C122.8,52.9,123.1,52.5,123.1,52z"/>
</g>
<polygon class="st2" points="11.2,3.5 37.5,3.5 24.1,31.2 "/>
</svg>
